<?xml version="1.0" encoding="UTF-8"?>
<!-- Generator: Adobe Illustrator 19.0.0, SVG Export Plug-In . SVG Version: 6.00 Build 0)  -->
<svg enable-background="new 0 0 460 460" version="1.1" viewBox="0 0 460 460" xml:space="preserve" xmlns="http://www.w3.org/2000/svg">

	
		<g fill="#bec8b7">
			<path d="m450 175h-33.073c-3.938-13.355-9.247-26.169-15.851-38.251l23.409-23.489c3.896-3.909 3.889-10.235-0.018-14.135l-63.701-63.604c-3.907-3.901-10.234-3.899-14.138 7e-3l-23.391 23.397c-12.092-6.609-24.901-11.92-38.238-15.854v-33.071c0-5.523-4.478-10-10-10h-90c-5.523 0-10 4.477-10 10v33.073c-13.341 3.935-26.15 9.246-38.238 15.854l-23.391-23.398c-3.903-3.904-10.232-3.907-14.138-7e-3l-63.7 63.603c-3.906 3.899-3.913 10.228-0.017 14.137l23.417 23.488c-6.61 12.092-11.923 24.904-15.859 38.25h-33.073c-5.523 0-10 4.477-10 10v90c0 5.522 4.477 10 10 10h33.072c3.934 13.337 9.244 26.147 15.854 38.238l-23.397 23.391c-1.876 1.875-2.931 4.419-2.931 7.071s1.054 5.196 2.929 7.072l63.701 63.701c3.906 3.904 10.236 3.904 14.143 0l23.391-23.392c12.079 6.601 24.889 11.909 38.239 15.845v33.074c0 5.522 4.477 10 10 10h90c5.522 0 10-4.478 10-10v-33.072c13.352-3.936 26.165-9.245 38.251-15.852l23.489 23.409c3.908 3.895 10.236 3.888 14.135-0.018l63.603-63.701c3.9-3.906 3.899-10.233-5e-3 -14.137l-23.391-23.391c6.602-12.082 11.91-24.892 15.845-38.239h33.072c5.522 0 10-4.478 10-10v-90c0-5.522-4.478-9.999-10-9.999zm-10 90h-30.703c-4.58 0-8.575 3.112-9.696 7.554-4.226 16.748-10.81 32.628-19.567 47.196-2.366 3.935-1.748 8.977 1.499 12.224l21.733 21.733-49.484 49.56-21.82-21.746c-3.248-3.236-8.281-3.85-12.211-1.487-14.568 8.758-30.448 15.342-47.196 19.567-4.441 1.121-7.554 5.116-7.554 9.696v30.703h-70v-30.703c0-4.58-3.111-8.574-7.552-9.695-16.757-4.23-32.636-10.814-47.198-19.568-3.936-2.365-8.977-1.748-12.224 1.499l-21.728 21.728-49.558-49.558 21.735-21.727c3.247-3.247 3.866-8.288 1.5-12.225-8.769-14.587-15.355-30.467-19.577-47.196-1.121-4.441-5.116-7.554-9.696-7.554h-30.703v-70h30.703c4.58 0 8.574-3.111 9.695-7.552 4.227-16.738 10.813-32.617 19.578-47.198 2.363-3.931 1.749-8.965-1.488-12.213l-21.754-21.819 49.558-49.482 21.733 21.741c3.249 3.249 8.29 3.865 12.225 1.5 14.581-8.765 30.46-15.352 47.198-19.578 4.441-1.121 7.552-5.115 7.552-9.695v-30.705h70v30.703c0 4.58 3.112 8.575 7.554 9.696 16.729 4.222 32.609 10.809 47.196 19.577 3.934 2.364 8.978 1.746 12.225-1.5l21.733-21.741 49.559 49.483-21.746 21.82c-3.237 3.247-3.851 8.281-1.487 12.211 8.754 14.563 15.338 30.441 19.568 47.198 1.121 4.441 5.115 7.552 9.695 7.552h30.703v70.001z"/>
			<path d="m230 90c-74.439 0-135 60.561-135 135s60.561 135 135 135 135-60.56 135-135-60.56-135-135-135zm0 250c-63.411 0-115-51.589-115-115s51.589-115 115-115 115 51.589 115 115-51.589 115-115 115z"/>
			<path d="m245 175h-5v-15h-20v15h-5c-11.028 0-20 8.972-20 20v20c0 11.028 8.972 20 20 20h30v20h-30v-10h-20v10c0 11.028 8.972 20 20 20h5v15h20v-15h5c11.028 0 20-8.972 20-20v-20c0-11.028-8.972-20-20-20h-30v-20h30v10h20v-10c0-11.028-8.972-20-20-20z"/>
			<rect x="295" y="215" width="20" height="20"/>
			<rect x="145" y="215" width="20" height="20"/>
		</g>
	
















</svg>
